HIERARCHY
ROOT Hips
{
	OFFSET 0.000000 121.760803 0.000000
	CHANNELS 6 Xposition Yposition Zposition Xrotation Yrotation Zrotation 
	JOINT Spine
	{
		OFFSET 0.072000 7.257294 -0.789700
		CHANNELS 3 Xrotation Yrotation Zrotation
		JOINT Spine1
		{
			OFFSET 0.000000 12.508769 -0.658067
			CHANNELS 3 Xrotation Yrotation Zrotation
			JOINT Spine1_split
			{
				OFFSET 0.000000 12.508769 -0.658067
				CHANNELS 3 Xrotation Yrotation Zrotation
				JOINT Spine2
				{
					OFFSET 0.000000 12.508769 -0.658067
					CHANNELS 3 Xrotation Yrotation Zrotation
					JOINT Neck
					{
						OFFSET 0.000000 14.033295 7.520400
						CHANNELS 3 Xrotation Yrotation Zrotation
						JOINT Head
						{
							OFFSET 0.000000 8.198502 5.703100
							CHANNELS 3 Xrotation Yrotation Zrotation
							JOINT HeadTop_End
							{
								OFFSET 0.000000 17.760803 13.332701
								CHANNELS 3 Xrotation Yrotation Zrotation
								End Site
								{
									OFFSET 0.000000 0.000000 0.000000
								}
							}
						}
					}
					JOINT LeftShoulder
					{
						OFFSET 6.292450 5.785301 -0.669000
						CHANNELS 3 Xrotation Yrotation Zrotation
						JOINT LeftShoulder_split
						{
							OFFSET 6.292450 5.785301 -0.669000
							CHANNELS 3 Xrotation Yrotation Zrotation
							JOINT LeftArm
							{
								OFFSET 13.907140 -6.093903 1.965100
								CHANNELS 3 Xrotation Yrotation Zrotation
								JOINT LeftForeArm
								{
									OFFSET 34.140198 0.000000 0.000000
									CHANNELS 3 Xrotation Yrotation Zrotation
									JOINT LeftHand
									{
										OFFSET 40.960209 0.000000 0.000000
										CHANNELS 3 Xrotation Yrotation Zrotation
										JOINT LeftHandThumb1
										{
											OFFSET 10.006996 -7.170425 9.573125
											CHANNELS 3 Xrotation Yrotation Zrotation
											JOINT LeftHandThumb2
											{
												OFFSET 1.835007 -1.059448 1.059443
												CHANNELS 3 Xrotation Yrotation Zrotation
												JOINT LeftHandThumb3
												{
													OFFSET 2.112267 -1.219513 1.219518
													CHANNELS 3 Xrotation Yrotation Zrotation
													JOINT LeftHandThumb4
													{
														OFFSET 4.843811 -2.796570 2.796576
														CHANNELS 3 Xrotation Yrotation Zrotation
														End Site
														{
															OFFSET 0.000000 0.000000 0.000000
														}
													}
												}
											}
										}
										JOINT LeftHandIndex1
										{
											OFFSET 18.389847 -0.922348 4.596882
											CHANNELS 3 Xrotation Yrotation Zrotation
											JOINT LeftHandIndex2
											{
												OFFSET 4.711273 0.000000 0.000000
												CHANNELS 3 Xrotation Yrotation Zrotation
												JOINT LeftHandIndex3
												{
													OFFSET 2.886131 0.000000 0.000000
													CHANNELS 3 Xrotation Yrotation Zrotation
													JOINT LeftHandIndex4
													{
														OFFSET 6.145912 0.000000 0.000000
														CHANNELS 3 Xrotation Yrotation Zrotation
														End Site
														{
															OFFSET 0.000000 0.000000 0.000000
														}
													}
												}
											}
										}
										JOINT LeftHandMiddle1
										{
											OFFSET 18.013008 0.000000 0.000000
											CHANNELS 3 Xrotation Yrotation Zrotation
											JOINT LeftHandMiddle2
											{
												OFFSET 4.946693 0.000000 0.000000
												CHANNELS 3 Xrotation Yrotation Zrotation
												JOINT LeftHandMiddle3
												{
													OFFSET 3.342232 0.000000 0.000000
													CHANNELS 3 Xrotation Yrotation Zrotation
													JOINT LeftHandMiddle4
													{
														OFFSET 4.461754 0.000000 0.000000
														CHANNELS 3 Xrotation Yrotation Zrotation
														End Site
														{
															OFFSET 0.000000 0.000000 0.000000
														}
													}
												}
											}
										}
										JOINT LeftHandRing1
										{
											OFFSET 15.849892 -0.102921 -4.126150
											CHANNELS 3 Xrotation Yrotation Zrotation
											JOINT LeftHandRing2
											{
												OFFSET 3.527054 0.000000 0.000000
												CHANNELS 3 Xrotation Yrotation Zrotation
												JOINT LeftHandRing3
												{
													OFFSET 2.961098 0.000000 0.000000
													CHANNELS 3 Xrotation Yrotation Zrotation
													JOINT LeftHandRing4
													{
														OFFSET 4.927200 0.000000 0.000000
														CHANNELS 3 Xrotation Yrotation Zrotation
														End Site
														{
															OFFSET 0.000000 0.000000 0.000000
														}
													}
												}
											}
										}
										JOINT LeftHandPinky1
										{
											OFFSET 12.791824 -0.832031 -6.799156
											CHANNELS 3 Xrotation Yrotation Zrotation
											JOINT LeftHandPinky2
											{
												OFFSET 3.327133 0.000000 0.000000
												CHANNELS 3 Xrotation Yrotation Zrotation
												JOINT LeftHandPinky3
												{
													OFFSET 3.014900 0.000000 0.000000
													CHANNELS 3 Xrotation Yrotation Zrotation
													JOINT LeftHandPinky4
													{
														OFFSET 5.847786 0.000000 0.000000
														CHANNELS 3 Xrotation Yrotation Zrotation
														End Site
														{
															OFFSET 0.000000 0.000000 0.000000
														}
													}
												}
											}
										}
									}
								}
							}
						}
					}
					JOINT RightShoulder
					{
						OFFSET -6.292450 5.785301 -0.669000
						CHANNELS 3 Xrotation Yrotation Zrotation
						JOINT RightShoulder_split
						{
							OFFSET -6.292450 5.785301 -0.669000
							CHANNELS 3 Xrotation Yrotation Zrotation
							JOINT RightArm
							{
								OFFSET -13.907140 -6.093903 1.965100
								CHANNELS 3 Xrotation Yrotation Zrotation
								JOINT RightForeArm
								{
									OFFSET -34.140198 0.000000 0.000000
									CHANNELS 3 Xrotation Yrotation Zrotation
									JOINT RightHand
									{
										OFFSET -40.960209 0.000000 0.000000
										CHANNELS 3 Xrotation Yrotation Zrotation
										JOINT RightHandThumb1
										{
											OFFSET -10.007050 -7.170456 9.573117
											CHANNELS 3 Xrotation Yrotation Zrotation
											JOINT RightHandThumb2
											{
												OFFSET -1.835007 -1.059448 1.059443
												CHANNELS 3 Xrotation Yrotation Zrotation
												JOINT RightHandThumb3
												{
													OFFSET -2.112267 -1.219513 1.219518
													CHANNELS 3 Xrotation Yrotation Zrotation
													JOINT RightHandThumb4
													{
														OFFSET -4.843834 -2.796585 2.796590
														CHANNELS 3 Xrotation Yrotation Zrotation
														End Site
														{
															OFFSET 0.000000 0.000000 0.000000
														}
													}
												}
											}
										}
										JOINT RightHandIndex1
										{
											OFFSET -18.389870 -0.922424 4.596786
											CHANNELS 3 Xrotation Yrotation Zrotation
											JOINT RightHandIndex2
											{
												OFFSET -4.711273 0.000000 0.000000
												CHANNELS 3 Xrotation Yrotation Zrotation
												JOINT RightHandIndex3
												{
													OFFSET -2.886131 0.000000 0.000000
													CHANNELS 3 Xrotation Yrotation Zrotation
													JOINT RightHandIndex4
													{
														OFFSET -6.145920 0.000000 0.000000
														CHANNELS 3 Xrotation Yrotation Zrotation
														End Site
														{
															OFFSET 0.000000 0.000000 0.000000
														}
													}
												}
											}
										}
										JOINT RightHandMiddle1
										{
											OFFSET -18.013008 0.000000 0.000000
											CHANNELS 3 Xrotation Yrotation Zrotation
											JOINT RightHandMiddle2
											{
												OFFSET -4.946693 0.000000 0.000000
												CHANNELS 3 Xrotation Yrotation Zrotation
												JOINT RightHandMiddle3
												{
													OFFSET -3.342232 0.000000 0.000000
													CHANNELS 3 Xrotation Yrotation Zrotation
													JOINT RightHandMiddle4
													{
														OFFSET -4.461754 0.000000 0.000000
														CHANNELS 3 Xrotation Yrotation Zrotation
														End Site
														{
															OFFSET 0.000000 0.000000 0.000000
														}
													}
												}
											}
										}
										JOINT RightHandRing1
										{
											OFFSET -15.849876 -0.102936 -4.126237
											CHANNELS 3 Xrotation Yrotation Zrotation
											JOINT RightHandRing2
											{
												OFFSET -3.527054 0.000000 0.000000
												CHANNELS 3 Xrotation Yrotation Zrotation
												JOINT RightHandRing3
												{
													OFFSET -2.961098 0.000000 0.000000
													CHANNELS 3 Xrotation Yrotation Zrotation
													JOINT RightHandRing4
													{
														OFFSET -4.927200 0.000000 0.000000
														CHANNELS 3 Xrotation Yrotation Zrotation
														End Site
														{
															OFFSET 0.000000 0.000000 0.000000
														}
													}
												}
											}
										}
										JOINT RightHandPinky1
										{
											OFFSET -12.791786 -0.832077 -6.799222
											CHANNELS 3 Xrotation Yrotation Zrotation
											JOINT RightHandPinky2
											{
												OFFSET -3.327133 0.000000 0.000000
												CHANNELS 3 Xrotation Yrotation Zrotation
												JOINT RightHandPinky3
												{
													OFFSET -3.014900 0.000000 0.000000
													CHANNELS 3 Xrotation Yrotation Zrotation
													JOINT RightHandPinky4
													{
														OFFSET -5.847786 0.000000 0.000000
														CHANNELS 3 Xrotation Yrotation Zrotation
														End Site
														{
															OFFSET 0.000000 0.000000 0.000000
														}
													}
												}
											}
										}
									}
								}
							}
						}
					}
				}
			}
		}
	}
	JOINT LeftUpLeg
	{
		OFFSET 13.026900 -6.336304 -1.092800
		CHANNELS 3 Xrotation Yrotation Zrotation
		JOINT LeftLeg
		{
			OFFSET 0.524474 -46.096886 9.782700
			CHANNELS 3 Xrotation Yrotation Zrotation
			JOINT LeftFoot
			{
				OFFSET -0.524474 -53.427422 -12.948200
				CHANNELS 3 Xrotation Yrotation Zrotation
				JOINT LeftToeBase
				{
					OFFSET 0.192200 -14.009700 16.364100
					CHANNELS 3 Xrotation Yrotation Zrotation
					JOINT LeftToe_End
					{
						OFFSET -1.784700 -0.561700 9.474800
						CHANNELS 3 Xrotation Yrotation Zrotation
						End Site
						{
							OFFSET 0.000000 0.000000 0.000000
						}
					}
				}
			}
		}
	}
	JOINT RightUpLeg
	{
		OFFSET -12.883000 -6.336304 -1.092800
		CHANNELS 3 Xrotation Yrotation Zrotation
		JOINT RightLeg
		{
			OFFSET -0.524587 -46.096825 9.782800
			CHANNELS 3 Xrotation Yrotation Zrotation
			JOINT RightFoot
			{
				OFFSET 0.524587 -53.427383 -12.948300
				CHANNELS 3 Xrotation Yrotation Zrotation
				JOINT RightToeBase
				{
					OFFSET -0.192200 -14.009700 16.364100
					CHANNELS 3 Xrotation Yrotation Zrotation
					JOINT RightToe_End
					{
						OFFSET 1.784700 -0.561700 9.474800
						CHANNELS 3 Xrotation Yrotation Zrotation
						End Site
						{
							OFFSET 0.000000 0.000000 0.000000
						}
					}
				}
			}
		}
	}
}
MOTION
Frames: 4
Frame Time: 0.016667
0.411292 89.366890 0.802174 11.810252 2.920847 -1.369518 9.873717 1.529418 1.224443 7.603457 0.776393 0.053755 0.000000 0.000000 0.000000 7.594521 0.865697 0.034386 -11.221137 -1.914916 7.441272 -27.443505 2.006291 -5.891920 0.000000 -0.000000 -0.000000 3.557352 -26.212550 4.772372 0.000000 0.000000 0.000000 -62.448713 -21.862957 -66.788226 -0.000049 -109.334342 -0.000063 0.750557 -5.137680 14.576865 -15.245204 10.163094 26.456292 3.939057 7.948711 0.746816 -0.579463 1.574999 2.538713 0.000000 -0.000002 0.000000 0.000006 0.000003 -0.000001 0.000008 0.000018 -0.000059 -0.000009 0.000010 -0.000048 -0.000001 -0.000002 0.000001 0.000001 -0.001924 0.015981 -0.000001 0.001948 -0.016052 -0.000005 0.000005 -0.000057 0.000001 0.000001 -0.000002 0.000008 0.000001 -0.000001 0.000003 0.000017 -0.000059 -0.000008 0.000006 -0.000057 0.000001 -0.000001 -0.000002 -0.018082 4.054262 0.511058 -0.018088 -4.054237 -0.511117 0.000002 0.000006 -0.000050 0.000001 -0.000005 -0.000001 1.196389 13.130259 10.955148 0.000000 0.000000 0.000000 -58.753239 43.561201 51.473788 0.000056 106.323950 -0.000069 3.436644 -3.949653 -38.593519 -6.948229 -5.049357 -29.742998 4.637198 -8.634139 -0.225409 -1.273759 0.137306 -2.094853 -0.000002 -0.000004 -0.000001 -0.000005 0.000002 0.000001 0.000008 -0.000006 0.000091 -0.000004 0.000007 0.000017 0.000000 0.000001 -0.000000 -0.000007 0.000001 0.000012 0.000013 -0.000011 0.000070 -0.000002 0.000011 0.000027 -0.000000 0.000003 0.000000 -0.000009 0.000006 0.000009 0.000011 -0.000011 0.000082 -0.000003 0.000005 0.000025 -0.000000 0.000002 0.000001 -0.000007 0.000002 0.000004 0.000012 -0.000006 0.000085 -0.000006 0.000004 0.000020 0.000000 0.000003 -0.000001 -58.718925 0.589134 5.847623 75.203880 7.409241 -0.740002 -27.099732 5.280818 -5.669894 -0.000010 0.000002 -0.000002 -0.000000 -0.000001 0.000000 -56.165417 -13.870188 -7.290918 74.194590 -8.005983 -4.548878 -30.624413 -9.699004 4.468189 0.000003 -0.000008 -0.000002 -0.000000 -0.000001 0.000000 
0.408451 89.362579 0.799490 11.798184 2.910990 -1.363067 9.877395 1.523710 1.231576 7.606521 0.771335 0.057330 0.000000 0.000000 0.000000 7.597682 0.860255 0.038071 -11.217810 -1.906713 7.417772 -27.445204 2.029512 -5.944890 0.000000 -0.000000 -0.000000 3.557356 -26.212550 4.772373 0.000000 0.000000 0.000000 -62.440264 -21.827232 -66.761711 0.000011 -109.308736 -0.000014 0.684127 -5.143280 14.587541 -15.245206 10.163103 26.456290 3.939060 7.948706 0.746816 -0.579460 1.574995 2.538713 0.000001 0.000002 0.000001 0.000005 0.000009 -0.000003 0.000007 0.000014 -0.000059 -0.000008 0.000006 -0.000045 -0.000000 -0.000002 -0.000000 -0.000000 -0.001916 0.015980 -0.000001 0.001946 -0.016049 -0.000005 0.000005 -0.000056 -0.000000 0.000001 0.000003 0.000006 0.000008 -0.000002 0.000004 0.000021 -0.000060 -0.000008 0.000008 -0.000056 0.000001 0.000002 -0.000000 -0.018083 4.054270 0.511056 -0.018086 -4.054240 -0.511121 0.000002 0.000000 -0.000051 -0.000002 0.000001 -0.000002 1.196362 13.156122 10.917912 0.000000 0.000000 0.000000 -58.738800 43.556188 51.453225 -0.000094 106.272682 0.000097 3.405175 -3.961062 -38.612084 -6.948228 -5.049354 -29.742998 4.637198 -8.634133 -0.225412 -1.273761 0.137308 -2.094851 -0.000000 0.000003 0.000000 -0.000006 0.000002 0.000001 0.000007 -0.000007 0.000091 -0.000005 0.000010 0.000017 0.000000 0.000001 -0.000000 -0.000007 0.000003 0.000012 0.000013 -0.000008 0.000070 -0.000003 0.000001 0.000028 -0.000000 -0.000002 0.000001 -0.000010 0.000006 0.000009 0.000011 -0.000012 0.000081 -0.000002 -0.000002 0.000026 0.000000 0.000001 0.000000 -0.000008 0.000002 0.000004 0.000012 -0.000004 0.000085 -0.000006 0.000009 0.000020 -0.000000 -0.000002 -0.000000 -58.708570 0.588714 5.850469 75.209815 7.412190 -0.742785 -27.103652 5.283217 -5.674911 -0.000010 0.000004 -0.000002 -0.000000 0.000000 -0.000000 -56.162272 -13.871634 -7.282045 74.201194 -8.006286 -4.561632 -30.624680 -9.701450 4.465856 0.000003 -0.000007 -0.000002 0.000000 -0.000002 0.000000 
0.405804 89.357941 0.796925 11.788790 2.903527 -1.357898 9.880588 1.517807 1.237757 7.609035 0.766257 0.060673 0.000000 0.000000 0.000000 7.600271 0.854940 0.041498 -11.217686 -1.900474 7.402068 -27.452692 2.051494 -5.990263 0.000000 0.000000 -0.000000 3.557358 -26.212550 4.772373 0.000000 0.000000 0.000000 -62.433502 -21.799058 -66.740312 0.000035 -109.303053 0.000040 0.645387 -5.153770 14.610217 -15.245201 10.163094 26.456289 3.939058 7.948702 0.746816 -0.579464 1.574993 2.538713 0.000001 0.000000 -0.000001 0.000007 0.000002 -0.000002 0.000009 0.000007 -0.000056 -0.000007 0.000010 -0.000047 -0.000001 0.000004 -0.000000 0.000003 -0.001923 0.015980 -0.000001 0.001944 -0.016050 -0.000004 0.000009 -0.000053 0.000000 0.000005 0.000002 0.000009 0.000002 -0.000001 0.000004 0.000015 -0.000062 -0.000007 0.000010 -0.000053 0.000001 -0.000000 -0.000001 -0.018081 4.054261 0.511058 -0.018088 -4.054242 -0.511122 0.000002 0.000006 -0.000047 0.000000 0.000002 0.000002 1.196225 13.178826 10.886487 0.000000 0.000000 0.000000 -58.723344 43.560344 51.421059 0.000221 106.244740 -0.000227 3.384691 -3.970386 -38.621267 -6.948228 -5.049357 -29.742994 4.637198 -8.634141 -0.225416 -1.273762 0.137305 -2.094852 -0.000002 -0.000000 0.000003 -0.000006 -0.000002 0.000001 0.000008 -0.000006 0.000091 -0.000004 0.000010 0.000017 -0.000000 0.000003 -0.000000 -0.000007 -0.000001 0.000012 0.000013 -0.000009 0.000070 -0.000003 0.000002 0.000027 -0.000000 -0.000000 0.000000 -0.000010 0.000002 0.000008 0.000011 -0.000007 0.000082 -0.000003 -0.000000 0.000025 0.000000 -0.000003 0.000000 -0.000008 -0.000003 0.000004 0.000012 -0.000006 0.000085 -0.000006 0.000004 0.000020 -0.000000 -0.000000 0.000000 -58.702006 0.589050 5.851277 75.215737 7.415143 -0.743121 -27.107076 5.287269 -5.679185 -0.000010 0.000002 -0.000002 0.000000 -0.000001 -0.000000 -56.162194 -13.877674 -7.277433 74.207970 -8.005941 -4.573856 -30.626281 -9.700580 4.463597 0.000003 -0.000008 -0.000002 -0.000000 -0.000001 0.000000 
0.403575 89.353226 0.794725 11.782672 2.898431 -1.353762 9.883381 1.511381 1.242086 7.610893 0.761037 0.063448 0.000000 0.000000 0.000000 7.602198 0.849652 0.044323 -11.220974 -1.896256 7.395014 -27.466503 2.071050 -6.020813 0.000000 -0.000000 -0.000000 3.557355 -26.212553 4.772373 0.000000 0.000000 0.000000 -62.430456 -21.781198 -66.726345 0.000036 -109.318441 0.000032 0.640059 -5.168570 14.635395 -15.245203 10.163099 26.456287 3.939061 7.948709 0.746815 -0.579464 1.574992 2.538712 0.000000 0.000001 -0.000001 0.000005 0.000005 -0.000003 0.000007 0.000015 -0.000057 -0.000009 0.000012 -0.000044 0.000001 0.000002 0.000001 0.000001 -0.001921 0.015978 0.000000 0.001947 -0.016049 -0.000005 0.000012 -0.000053 0.000001 0.000000 0.000003 0.000007 0.000005 -0.000002 0.000004 0.000018 -0.000061 -0.000008 0.000011 -0.000056 0.000001 0.000002 0.000001 -0.018082 4.054264 0.511057 -0.018088 -4.054238 -0.511118 0.000003 0.000001 -0.000050 0.000000 0.000002 0.000003 1.195814 13.196527 10.865736 0.000000 0.000000 0.000000 -58.712723 43.570736 51.388554 -0.000060 106.243886 0.000030 3.384068 -3.974717 -38.619891 -6.948228 -5.049356 -29.742998 4.637198 -8.634133 -0.225412 -1.273759 0.137306 -2.094850 -0.000003 -0.000003 0.000001 -0.000006 -0.000000 0.000001 0.000008 -0.000006 0.000090 -0.000005 0.000006 0.000017 0.000000 -0.000001 -0.000000 -0.000007 -0.000001 0.000012 0.000013 -0.000014 0.000070 -0.000003 0.000005 0.000027 -0.000000 0.000003 0.000000 -0.000009 0.000002 0.000009 0.000011 -0.000011 0.000082 -0.000003 -0.000001 0.000025 -0.000000 0.000002 0.000000 -0.000007 -0.000000 0.000005 0.000013 -0.000005 0.000085 -0.000006 0.000003 0.000020 0.000000 -0.000002 -0.000000 -58.699670 0.590476 5.849657 75.221474 7.418111 -0.740503 -27.109525 5.291776 -5.683044 -0.000010 0.000004 -0.000002 -0.000000 0.000000 0.000000 -56.165090 -13.885642 -7.277766 74.215101 -8.004071 -4.583120 -30.628460 -9.696736 4.461382 0.000003 -0.000007 -0.000002 -0.000000 -0.000001 0.000000 
